nColumns=19
nRows=39
DataType=double
version=3
OpenSimVersion=4.1
endheader
time	ground_force_calcn_l_vx	ground_force_calcn_l_vy	ground_force_calcn_l_vz	ground_force_calcn_l_px	ground_force_calcn_l_py	ground_force_calcn_l_pz	ground_force_calcn_l_mx	ground_force_calcn_l_my	ground_force_calcn_l_mz	ground_force_calcn_r_vx	ground_force_calcn_r_vy	ground_force_calcn_r_vz	ground_force_calcn_r_px	ground_force_calcn_r_py	ground_force_calcn_r_pz	ground_force_calcn_r_mx	ground_force_calcn_r_my	ground_force_calcn_r_mz
0.199751	105.613	1456.39	77.2381	-0.155145	0	-0.0813453	-0.286234	-3.94713	-0.209332	0	0	0	0	0	0	0	0	0
0.200749	107.912	1446.24	76.3879	-0.155412	0	-0.0813466	-0.288828	-3.8709	-0.204454	0	0	0	0	0	0	0	0	0
0.201748	110.167	1435.97	75.53	-0.155674	0	-0.0813489	-0.291171	-3.79526	-0.199626	0	0	0	0	0	0	0	0	0
0.202747	112.378	1425.56	74.6649	-0.155933	0	-0.0813521	-0.293267	-3.72021	-0.194849	0	0	0	0	0	0	0	0	0
0.203746	114.544	1415.02	73.7932	-0.156187	0	-0.0813562	-0.295119	-3.64577	-0.190126	0	0	0	0	0	0	0	0	0
0.204744	116.664	1404.36	72.9156	-0.156437	0	-0.0813613	-0.296731	-3.57195	-0.185459	0	0	0	0	0	0	0	0	0
0.205743	118.737	1393.58	72.0327	-0.156683	0	-0.0813674	-0.298107	-3.49878	-0.180849	0	0	0	0	0	0	0	0	0
0.206742	120.762	1382.67	71.145	-0.156924	0	-0.0813746	-0.299248	-3.42626	-0.176297	0	0	0	0	0	0	0	0	0
0.207741	122.739	1371.65	70.2532	-0.157159	0	-0.0813828	-0.300159	-3.35439	-0.171805	0	0	0	0	0	0	0	0	0
0.208739	124.666	1360.52	69.3578	-0.15739	0	-0.0813921	-0.300844	-3.28319	-0.167374	0	0	0	0	0	0	0	0	0
0.209738	126.543	1349.27	68.4594	-0.157614	0	-0.0814025	-0.301305	-3.21267	-0.163005	0	0	0	0	0	0	0	0	0
0.210737	128.369	1337.91	67.5587	-0.157833	0	-0.081414	-0.301545	-3.14282	-0.158698	0	0	0	0	0	0	0	0	0
0.211736	130.144	1326.46	66.6561	-0.158046	0	-0.0814267	-0.301568	-3.07365	-0.154455	0	0	0	0	0	0	0	0	0
0.212734	131.866	1314.89	65.7522	-0.158252	0	-0.0814405	-0.301378	-3.00516	-0.150275	0	0	0	0	0	0	0	0	0
0.213733	133.536	1303.23	64.8476	-0.158451	0	-0.0814555	-0.300977	-2.93737	-0.14616	0	0	0	0	0	0	0	0	0
0.214732	135.151	1291.48	63.9428	-0.158644	0	-0.0814718	-0.300368	-2.87026	-0.14211	0	0	0	0	0	0	0	0	0
0.21573	136.713	1279.63	63.0384	-0.158829	0	-0.0814893	-0.299556	-2.80385	-0.138126	0	0	0	0	0	0	0	0	0
0.216729	138.219	1267.69	62.1348	-0.159006	0	-0.0815081	-0.298543	-2.73813	-0.134207	0	0	0	0	0	0	0	0	0
0.217728	139.67	1255.67	61.2326	-0.159176	0	-0.0815282	-0.297333	-2.6731	-0.130353	0	0	0	0	0	0	0	0	0
0.218727	141.066	1243.57	60.3322	-0.159338	0	-0.0815497	-0.29593	-2.60877	-0.126566	0	0	0	0	0	0	0	0	0
0.219725	142.405	1231.38	59.4341	-0.159491	0	-0.0815725	-0.294337	-2.54515	-0.122845	0	0	0	0	0	0	0	0	0
0.220724	143.687	1219.12	58.5388	-0.159635	0	-0.0815967	-0.292557	-2.48223	-0.119189	0	0	0	0	0	0	0	0	0
0.221723	144.911	1206.79	57.6467	-0.15977	0	-0.0816223	-0.290595	-2.42001	-0.115601	0	0	0	0	0	0	0	0	0
0.222722	146.079	1194.39	56.7582	-0.159896	0	-0.0816494	-0.288455	-2.35851	-0.112078	0	0	0	0	0	0	0	0	0
0.22372	147.188	1181.92	55.8738	-0.160012	0	-0.081678	-0.286141	-2.29772	-0.108622	0	0	0	0	0	0	0	0	0
0.224719	148.238	1169.39	54.9937	-0.160118	0	-0.081708	-0.283657	-2.23765	-0.105232	0	0	0	0	0	0	0	0	0
0.225718	149.23	1156.8	54.1185	-0.160214	0	-0.0817397	-0.281008	-2.17832	-0.101908	0	0	0	0	0	0	0	0	0
0.226717	150.163	1144.16	53.2484	-0.160299	0	-0.0817729	-0.278199	-2.11972	-0.0986502	0	0	0	0	0	0	0	0	0
0.227715	151.037	1131.46	52.3838	-0.160373	0	-0.0818077	-0.275234	-2.06186	-0.0954586	0	0	0	0	0	0	0	0	0
0.228714	151.852	1118.72	51.525	-0.160436	0	-0.0818442	-0.272119	-2.00475	-0.092333	0	0	0	0	0	0	0	0	0
0.229713	152.607	1105.93	50.6722	-0.160487	0	-0.0818824	-0.26886	-1.94841	-0.0892733	0	0	0	0	0	0	0	0	0
0.230712	153.302	1093.1	49.8259	-0.160526	0	-0.0819222	-0.265461	-1.89284	-0.0862793	0	0	0	0	0	0	0	0	0
0.23171	153.938	1080.23	48.9861	-0.160553	0	-0.0819639	-0.261929	-1.83804	-0.083351	0	0	0	0	0	0	0	0	0
0.232709	154.514	1067.33	48.1532	-0.160568	0	-0.0820073	-0.258269	-1.78404	-0.080488	0	0	0	0	0	0	0	0	0
0.233708	155.03	1054.4	47.3275	-0.160569	0	-0.0820525	-0.254489	-1.73085	-0.0776903	0	0	0	0	0	0	0	0	0
0.234707	155.486	1041.44	46.509	-0.160558	0	-0.0820997	-0.250594	-1.67847	-0.0749576	0	0	0	0	0	0	0	0	0
0.235705	155.883	1028.46	45.698	-0.160532	0	-0.0821487	-0.246591	-1.62691	-0.0722896	0	0	0	0	0	0	0	0	0
0.236704	156.22	1015.45	44.8947	-0.160493	0	-0.0821997	-0.242487	-1.5762	-0.0696862	0	0	0	0	0	0	0	0	0
0.237703	156.498	1002.43	44.0993	-0.16044	0	-0.0822526	-0.238289	-1.52634	-0.067147	0	0	0	0	0	0	0	0	0
